<?xml version="1.0" encoding="utf-8"?>
<!-- Generator: Adobe Illustrator 28.2.0, SVG Export Plug-In . SVG Version: 6.00 Build 0)  -->
<svg version="1.1" xmlns="http://www.w3.org/2000/svg" xmlns:xlink="http://www.w3.org/1999/xlink" x="0px" y="0px"
	 viewBox="0 0 283.5 89.7" style="enable-background:new 0 0 283.5 89.7;" xml:space="preserve">
<style type="text/css">
	.st0{display:none;}
	.st1{display:inline;fill:#2C302C;}
	.st2{fill:#FFFFFF;}
	.st3{enable-background:new    ;}
	.st4{fill:#54B948;}
</style>
<g id="Layer_2" class="st0">
	<rect y="-23.7" class="st1" width="283.5" height="113.4"/>
</g>
<g id="Layer_3">
</g>
<g id="Layer_1">
	<g>
		<ellipse class="st2" cx="48.6" cy="44.8" rx="28.4" ry="28.3"/>
		<g class="st3">
			<path class="st2" d="M92.6,45.9l-2.2,17.7c-2.9,0.3-6.4,0.3-9.3,0l4.2-33.8c3.2-0.2,6.8-0.2,9.9,0l6.5,18.2l2.2-18.2
				c3.3-0.2,6.3-0.2,9.3,0l-4.1,33.8c-3.4,0.2-6.7,0.2-10.1,0L92.6,45.9z"/>
			<path class="st2" d="M130.8,59.9h-0.3c-1.1,3.2-3.7,4.3-7.2,4.3c-5,0-8.5-1.8-7.8-7.4l2.3-19c2.2-0.2,7.1-0.2,9.3,0l-1.8,14.6
				c-0.4,3.6,0.6,4.2,2.3,4.2c2,0,2.9-0.6,3.7-3l1.9-15.7c2.2-0.2,7.1-0.2,9.3,0l-3.2,25.7c-2.2,0.3-6.3,0.3-8.4,0L130.8,59.9z"/>
			<path class="st2" d="M158.1,44.5l-0.9,7.7c-0.5,4.1,1,4.3,2.6,4.3c0.8,0,1.8-0.1,2.6-0.2c0,2.1-0.4,5.3-0.9,7.5
				c-1.5,0.3-2.9,0.5-4.6,0.5c-5.6,0-10.3-2.1-9.5-8.8l1.3-10.9h-3.3c0-2.2,0.3-4.4,0.8-6.5l3.3-0.2l0.8-6.3c2.2-0.2,7.1-0.2,9.3,0
				l-0.7,6.1h5.7c0,2.2-0.3,4.8-0.9,6.9L158.1,44.5L158.1,44.5z"/>
			<path class="st2" d="M168.8,37.5c2.8-0.1,5.5-0.1,8.4,0v4.4h0.3c1.1-3.5,4.5-4.9,9-4.9c0,2.2-0.4,5.8-1,7.9
				c-5.6,0-7.2,1.1-8.9,4.7l-1.7,14c-2.2,0.2-7.1,0.2-9.3,0L168.8,37.5z"/>
			<path class="st2" d="M190,37.7c2.2-0.2,7.1-0.2,9.3,0l-3.2,25.9c-2.2,0.2-7.1,0.2-9.3,0L190,37.7z M199.8,34.8
				c-2.2,0.2-7.4,0.2-9.6,0l0.7-6.9c2.2-0.2,7.7-0.2,9.9,0L199.8,34.8z"/>
			<path class="st2" d="M212.8,50.7l-1.6,12.9c-2.5,0.2-6.6,0.2-9.3,0l4.1-33.8h21.8c0,2.2-0.4,5.1-0.9,7.3h-12.5l-0.8,6.3h11.5
				c0,2.1-0.4,5.2-0.9,7.3H212.8z"/>
			<path class="st2" d="M231.8,37.7c2.2-0.2,7.1-0.2,9.3,0l-3.2,25.9c-2.2,0.2-7.1,0.2-9.3,0L231.8,37.7z M241.5,34.8
				c-2.2,0.2-7.4,0.2-9.6,0l0.7-6.9c2.2-0.2,7.7-0.2,9.8,0L241.5,34.8z"/>
			<path class="st2" d="M256.8,44.5l-0.9,7.7c-0.5,4.1,1,4.3,2.6,4.3c0.8,0,1.8-0.1,2.6-0.2c0,2.1-0.4,5.3-0.9,7.5
				c-1.5,0.3-2.9,0.5-4.6,0.5c-5.6,0-10.3-2.1-9.5-8.8l1.3-10.9h-3.3c0-2.2,0.3-4.4,0.8-6.5l3.3-0.2l0.8-6.3c2.2-0.2,7.1-0.2,9.3,0
				l-0.7,6.1h5.7c0,2.2-0.3,4.8-0.9,6.9L256.8,44.5L256.8,44.5z"/>
		</g>
		<g>
			<path class="st4" d="M71.1,27.6C66,20.8,57.8,16.5,48.6,16.5c-15.7,0-28.4,12.7-28.4,28.3c0,6.4,2.1,12.3,5.7,17.1l4.2-34.2
				c3.3-0.2,7-0.2,10.1,0l6.6,18.5l2.4-18.6H51"/>
			<path class="st4" d="M71.5,28.2c-0.1,2.2-0.4,4.9-0.9,7H57.9l-0.8,6.4h11.7c-0.1,2.2-0.4,5.3-1,7.5H56.2l-1.6,13.3
				c-3.5,0.2-6.8,0.2-10.4,0l-6.5-18.2l-2.2,18.2c-2.8,0.3-6.1,0.3-9,0c5.2,6.5,13.2,10.7,22.2,10.7C64.3,73.2,77,60.5,77,44.8
				C76.9,38.6,74.9,32.8,71.5,28.2z"/>
		</g>
	</g>
</g>
</svg>
