<?xml version="1.0" encoding="utf-8"?>
<!-- Generator: Adobe Illustrator 28.2.0, SVG Export Plug-In . SVG Version: 6.00 Build 0)  -->
<svg version="1.1" xmlns="http://www.w3.org/2000/svg" xmlns:xlink="http://www.w3.org/1999/xlink" x="0px" y="0px"
	 viewBox="0 0 283.5 113.4" style="enable-background:new 0 0 283.5 113.4;" xml:space="preserve">
<style type="text/css">
	.st0{display:none;}
	.st1{display:inline;fill:#2C302C;}
	.st2{fill:#FFFFFF;}
	.st3{enable-background:new    ;}
	.st4{fill:#54B948;}
</style>
<g id="Layer_2" class="st0">
	<rect class="st1" width="283.5" height="113.4"/>
</g>
<g id="Layer_3">
	<path class="st2" d="M242.3,93h-201C21.2,93,4.9,76.8,4.9,56.7v0c0-20.1,16.3-36.3,36.3-36.3h201c20.1,0,36.3,16.3,36.3,36.3v0
		C278.6,76.8,262.3,93,242.3,93z"/>
</g>
<g id="Layer_1">
	<g>
		<ellipse class="st2" cx="48.6" cy="56.7" rx="28.4" ry="28.3"/>
		<g class="st3">
			<path d="M92.6,57.8l-2.2,17.7c-2.9,0.3-6.4,0.3-9.3,0l4.2-33.8c3.2-0.2,6.8-0.2,9.9,0l6.5,18.2l2.2-18.2c3.3-0.2,6.3-0.2,9.3,0
				l-4.1,33.8c-3.4,0.2-6.7,0.2-10.1,0L92.6,57.8z"/>
			<path d="M130.8,71.8h-0.3c-1.1,3.2-3.7,4.3-7.2,4.3c-5,0-8.5-1.8-7.8-7.4l2.3-19c2.2-0.2,7.1-0.2,9.3,0l-1.8,14.6
				c-0.4,3.6,0.6,4.2,2.3,4.2c2,0,2.9-0.6,3.7-3l1.9-15.7c2.2-0.2,7.1-0.2,9.3,0l-3.2,25.7c-2.2,0.3-6.3,0.3-8.4,0L130.8,71.8z"/>
			<path d="M158.1,56.4l-0.9,7.7c-0.5,4.1,1,4.3,2.6,4.3c0.8,0,1.8-0.1,2.6-0.2c0,2.1-0.4,5.3-0.9,7.5c-1.5,0.3-2.9,0.5-4.6,0.5
				c-5.6,0-10.3-2.1-9.5-8.8l1.3-10.9h-3.3c0-2.2,0.3-4.4,0.8-6.5l3.3-0.2l0.8-6.3c2.2-0.2,7.1-0.2,9.3,0l-0.7,6.1h5.7
				c0,2.2-0.3,4.8-0.9,6.9L158.1,56.4L158.1,56.4z"/>
			<path d="M168.8,49.4c2.8-0.1,5.5-0.1,8.4,0v4.4h0.3c1.1-3.5,4.5-4.9,9-4.9c0,2.2-0.4,5.8-1,7.9c-5.6,0-7.2,1.1-8.9,4.7l-1.7,14
				c-2.2,0.2-7.1,0.2-9.3,0L168.8,49.4z"/>
			<path d="M190,49.6c2.2-0.2,7.1-0.2,9.3,0l-3.2,25.9c-2.2,0.2-7.1,0.2-9.3,0L190,49.6z M199.8,46.7c-2.2,0.2-7.4,0.2-9.6,0
				l0.7-6.9c2.2-0.2,7.7-0.2,9.9,0L199.8,46.7z"/>
			<path d="M212.8,62.6l-1.6,12.9c-2.5,0.2-6.6,0.2-9.3,0l4.1-33.8h21.8c0,2.2-0.4,5.1-0.9,7.3h-12.5l-0.8,6.3h11.5
				c0,2.1-0.4,5.2-0.9,7.3H212.8z"/>
			<path d="M231.8,49.6c2.2-0.2,7.1-0.2,9.3,0l-3.2,25.9c-2.2,0.2-7.1,0.2-9.3,0L231.8,49.6z M241.5,46.7c-2.2,0.2-7.4,0.2-9.6,0
				l0.7-6.9c2.2-0.2,7.7-0.2,9.8,0L241.5,46.7z"/>
			<path d="M256.8,56.4l-0.9,7.7c-0.5,4.1,1,4.3,2.6,4.3c0.8,0,1.8-0.1,2.6-0.2c0,2.1-0.4,5.3-0.9,7.5c-1.5,0.3-2.9,0.5-4.6,0.5
				c-5.6,0-10.3-2.1-9.5-8.8l1.3-10.9h-3.3c0-2.2,0.3-4.4,0.8-6.5l3.3-0.2l0.8-6.3c2.2-0.2,7.1-0.2,9.3,0l-0.7,6.1h5.7
				c0,2.2-0.3,4.8-0.9,6.9L256.8,56.4L256.8,56.4z"/>
		</g>
		<g>
			<path class="st4" d="M71.1,39.5C66,32.7,57.8,28.4,48.6,28.4c-15.7,0-28.4,12.7-28.4,28.3c0,6.4,2.1,12.3,5.7,17.1l4.2-34.2
				c3.3-0.2,7-0.2,10.1,0l6.6,18.5l2.4-18.6H51"/>
			<path class="st4" d="M71.5,40.1c-0.1,2.2-0.4,4.9-0.9,7H57.9l-0.8,6.4h11.7c-0.1,2.2-0.4,5.3-1,7.5H56.2l-1.6,13.3
				c-3.5,0.2-6.8,0.2-10.4,0l-6.5-18.2l-2.2,18.2c-2.8,0.3-6.1,0.3-9,0C31.7,80.8,39.7,85,48.7,85C64.3,85.1,77,72.4,77,56.7
				C76.9,50.5,74.9,44.7,71.5,40.1z"/>
		</g>
	</g>
</g>
</svg>
