<?xml version="1.0" encoding="utf-8"?>
<!-- Generator: Adobe Illustrator 28.2.0, SVG Export Plug-In . SVG Version: 6.00 Build 0)  -->
<svg version="1.1" xmlns="http://www.w3.org/2000/svg" xmlns:xlink="http://www.w3.org/1999/xlink" x="0px" y="0px"
	 viewBox="0 0 56.8 56.6" style="enable-background:new 0 0 56.8 56.6;" xml:space="preserve">
<style type="text/css">
	.st0{display:none;}
	.st1{display:inline;fill:#2C302C;}
	.st2{fill:#FFFFFF;}
	.st3{fill:#54B948;}
</style>
<g id="Layer_2" class="st0">
	<rect x="-20.2" y="-40.3" class="st1" width="283.5" height="113.4"/>
</g>
<g id="Layer_3">
</g>
<g id="Layer_1">
	<g>
		<ellipse class="st2" cx="28.4" cy="28.3" rx="28.4" ry="28.3"/>
		<g>
			<path class="st3" d="M50.9,11.1C45.8,4.3,37.6,0,28.4,0C12.7,0,0,12.7,0,28.3c0,6.4,2.1,12.3,5.7,17.1l4.2-34.2
				c3.3-0.2,7-0.2,10.1,0l6.6,18.5L29,11.1h1.8"/>
			<path class="st3" d="M51.3,11.7c-0.1,2.2-0.4,4.9-0.9,7H37.7l-0.8,6.4h11.7c-0.1,2.2-0.4,5.3-1,7.5H36l-1.6,13.3
				c-3.5,0.2-6.8,0.2-10.4,0l-6.5-18.2l-2.2,18.2c-2.8,0.3-6.1,0.3-9,0c5.2,6.5,13.2,10.7,22.2,10.7C44.1,56.7,56.8,44,56.8,28.3
				C56.7,22.1,54.7,16.3,51.3,11.7z"/>
		</g>
	</g>
</g>
</svg>
